<?xml version="1.0" standalone="no"?>
<!DOCTYPE svg PUBLIC "-//W3C//DTD SVG 1.1//EN" "http://www.w3.org/Graphics/SVG/1.1/DTD/svg11.dtd" >
<svg xmlns="http://www.w3.org/2000/svg" xmlns:xlink="http://www.w3.org/1999/xlink" version="1.1">
<metadata></metadata>
<defs>
<font id="corporativebook" horiz-adv-x="1232" >
<font-face units-per-em="2048" ascent="1659" descent="-389" />
<missing-glyph horiz-adv-x="591" />
<glyph unicode="&#xfb01;" horiz-adv-x="1083" d="M866 88q49 -8 146 -8l-4 -86q-46 -8 -123 -8q-71 0 -99 24t-28 90v791h-426v-891h-109v891h-192v92h192v201q0 291 328 291q148 0 244 -39l-9 -101q-88 41 -221 41q-233 0 -233 -192v-201h534v-895z" />
<glyph unicode="&#xfb02;" horiz-adv-x="1093" d="M866 92q46 -14 178 -14l-4 -86q-56 -6 -131 -6q-85 0 -118 26.5t-33 96.5v782h-426v-891h-109v891h-192v92h192v203q0 148 65 218.5t183 70.5q92 0 182 -35l-8 -97q-76 33 -156 33q-74 0 -115.5 -45.5t-41.5 -138.5v-209h426v471h108v-1362z" />
<glyph horiz-adv-x="0" />
<glyph horiz-adv-x="682" />
<glyph unicode=" "  horiz-adv-x="591" />
<glyph unicode="&#x09;" horiz-adv-x="591" />
<glyph unicode="&#xa0;" horiz-adv-x="591" />
<glyph unicode="!" horiz-adv-x="425" d="M150 1454l10 -1048h106l10 1048h-126zM213 -25q42 0 71 29.5t29 71.5q0 44 -28.5 73t-71.5 29t-71.5 -29t-28.5 -73q0 -42 29 -71.5t71 -29.5z" />
<glyph unicode="&#x22;" horiz-adv-x="692" d="M168 1473l-27 -459h84l60 442zM434 1473l-26 -459h84l59 442z" />
<glyph unicode="#" horiz-adv-x="1468" d="M1268 827h-254l-74 -323h256l-18 -86h-256l-68 -295h-98l67 295h-291l-67 -295h-98l67 295h-252l21 86h250l73 323h-254l21 86h252l67 295h99l-66 -295h289l67 295h99l-66 -295h252zM842 504l73 323h-290l-74 -323h291z" />
<glyph unicode="$" horiz-adv-x="1236" d="M1106 369q0 -169 -120 -265.5t-331 -105.5l-6 -207h-96l4 205q-143 7 -251 45t-165 76l17 106q32 -22 78 -45t137.5 -49t185.5 -31l12 584q-57 17 -93.5 29.5t-87.5 33.5t-83.5 40.5t-68.5 50t-57 64.5t-34.5 80t-13.5 99q0 167 117 269t340 106l4 205h96l-4 -207 q327 -28 383 -287l-104 -22q-15 80 -83 139.5t-198 73.5l-12 -600q55 -16 93 -28.5t87.5 -32.5t82.5 -40t68 -49.5t55.5 -62.5t34 -77.5t13.5 -96.5zM240 1075q0 -50 18.5 -91t46.5 -69.5t75 -54t90 -41.5t105 -35l13 576q-172 -4 -260 -79t-88 -206zM657 98 q165 8 252.5 70.5t87.5 193.5q0 61 -25 108.5t-74.5 81t-100.5 55t-127 44.5z" />
<glyph unicode="%" horiz-adv-x="1806" d="M504 668q173 0 255.5 106.5t82.5 296.5t-82.5 297t-255.5 107q-174 0 -257 -107t-83 -297t83 -296.5t257 -106.5zM1397 1475l-1053 -1493l107 -7l1052 1493zM504 745q-122 0 -183 85.5t-61 240.5q0 156 61 240t183 84t181.5 -84.5t59.5 -239.5q0 -156 -59.5 -241 t-181.5 -85zM1346 -25q173 0 255 107t82 297t-82 296.5t-255 106.5q-174 0 -257 -106.5t-83 -296.5t83 -297t257 -107zM1346 55q-122 0 -182 84.5t-60 239.5q0 156 60 241t182 85q121 0 181 -85.5t60 -240.5q0 -156 -59.5 -240t-181.5 -84z" />
<glyph unicode="&#x26;" horiz-adv-x="1601" d="M1489 846q-81 -445 -318 -674l213 -197l-124 -16l-162 150q-210 -154 -506 -154q-236 0 -355.5 85.5t-119.5 248.5q0 61 17.5 112.5t45.5 90.5t75.5 76.5t96 65.5t117.5 62q-73 69 -113.5 119.5t-69 124.5t-28.5 162q0 76 23.5 142t70 118t123.5 82.5t176 30.5 q96 0 168.5 -27t113.5 -75t61 -105.5t20 -124.5q0 -56 -14 -106.5t-34 -88.5t-55 -75.5t-64.5 -61.5t-74.5 -52t-73 -42.5t-72 -36.5l465 -432q213 204 286 606zM371 1104q0 -109 39 -184t151 -179q45 23 70 36.5t66.5 38.5t65.5 45t53.5 50t45.5 59.5t27.5 68.5t11.5 81 q0 124 -67 189t-185 65q-132 0 -205 -75.5t-73 -194.5zM602 57q238 0 416 127l-481 449q-83 -43 -132 -74.5t-90.5 -71.5t-59 -85.5t-17.5 -104.5q0 -112 87.5 -176t276.5 -64z" />
<glyph unicode="'" horiz-adv-x="425" d="M168 1473l-27 -459h84l60 442z" />
<glyph unicode="(" horiz-adv-x="897" d="M336 645q0 -155 30 -295.5t77 -242t108.5 -185t119.5 -134.5t115 -81l-24 -96q-71 33 -142.5 92.5t-144 153t-128 206.5t-90 265t-34.5 317t34.5 317t90 265.5t128 207t144 152.5t142.5 92l24 -96q-57 -30 -115 -81t-119.5 -134.5t-108.5 -185t-77 -242t-30 -295.5z" />
<glyph unicode=")" horiz-adv-x="897" d="M561 645q0 155 -30 295.5t-77 242t-108.5 185t-119 134.5t-113.5 81l22 96q71 -33 142.5 -92t144 -152.5t128 -207t90 -265.5t34.5 -317t-34.5 -317t-90 -265t-128 -206.5t-144 -153t-142.5 -92.5l-22 96q56 30 113.5 81t119 134.5t108.5 185t77 242t30 295.5z" />
<glyph unicode="*" horiz-adv-x="899" d="M508 1208l209 -110l-43 -76l-187 125l7 -209h-88l6 209l-187 -125l-43 76l209 110l-209 113l43 74l187 -125l-6 211h88l-7 -211l187 125l43 -74z" />
<glyph unicode="+" horiz-adv-x="1120" d="M938 696v-94h-326v-344h-104v344h-326v94h326v344h104v-344h326z" />
<glyph unicode="," horiz-adv-x="417" d="M307 14q0 69 -29.5 108.5t-76.5 39.5q-44 0 -66 -27.5t-22 -71.5q41 0 66.5 -22t25.5 -59q0 -38 -14.5 -68.5t-25.5 -40.5t-36 -28q-4 -4 -6 -5l41 -63q143 92 143 237z" />
<glyph unicode="-" horiz-adv-x="819" d="M688 635h-555v-94h555v94z" />
<glyph unicode="." horiz-adv-x="425" d="M213 -25q42 0 71 29.5t29 71.5q0 44 -28.5 73t-71.5 29t-71.5 -29t-28.5 -73q0 -42 29 -71.5t71 -29.5z" />
<glyph unicode="/" horiz-adv-x="763" d="M655 1659l-655 -2028h109l655 2028h-109z" />
<glyph unicode="0" horiz-adv-x="1280" d="M641 -25q129 0 225 53t155.5 152.5t88.5 235t29 307.5t-29 308t-88.5 236.5t-155.5 154t-225 53.5q-104 0 -187 -35t-141 -99t-97 -157.5t-57 -207.5t-18 -251t18 -251t57 -207.5t97 -157.5t141 -99t187 -35zM641 78q-383 0 -383 647q0 149 21.5 265.5t67 203 t119.5 132.5t175 46q379 0 379 -649q0 -645 -379 -645z" />
<glyph unicode="1" horiz-adv-x="786" d="M510 96h225v-96h-624v96h282v1237q-52 -40 -180 -104.5t-215 -95.5l-18 100q106 41 224 102.5t189 118.5h117v-1358z" />
<glyph unicode="2" horiz-adv-x="1095" d="M223 96h772v-96h-886v45q0 103 41.5 192t108 154t146.5 124.5t160.5 116t147 116t108 137t41.5 166.5q0 147 -86 237t-256 90q-138 0 -215 -54.5t-108 -170.5l-107 18q34 143 140 223.5t292 80.5q220 0 335.5 -115t115.5 -305q0 -99 -39.5 -185t-103.5 -149.5 t-141.5 -121.5t-156.5 -112.5t-145.5 -110.5t-111.5 -128t-52 -152z" />
<glyph unicode="3" horiz-adv-x="1107" d="M696 760q131 -37 211 -129t80 -242q0 -184 -124.5 -299t-348.5 -115q-349 0 -434 265l100 32q25 -90 108 -145t228 -55q163 0 262 81t99 236q0 149 -103 234.5t-262 85.5h-123v94h123q86 0 155.5 31t114.5 98.5t45 163.5q0 127 -78 204.5t-235 77.5q-141 0 -213.5 -51.5 t-103.5 -157.5l-105 23q76 283 422 283q208 0 315 -104t107 -275q0 -124 -65 -210t-175 -126z" />
<glyph unicode="4" horiz-adv-x="1093" d="M827 555h246v-98h-246v-457h-116v457h-688l-23 84l719 913h108v-899zM127 555h584v743z" />
<glyph unicode="5" horiz-adv-x="1085" d="M512 858q223 0 348 -112t125 -312q0 -203 -119 -331t-340 -128q-341 0 -426 265l101 34q24 -87 104.5 -144.5t222.5 -57.5q161 0 253.5 95t92.5 265q0 152 -97 242t-290 90q-132 0 -294 -45l24 735h705v-100h-598l-21 -518q101 22 209 22z" />
<glyph unicode="6" horiz-adv-x="1173" d="M643 879q207 0 318.5 -124.5t111.5 -322.5q0 -202 -115.5 -329.5t-324.5 -127.5q-233 0 -362.5 173.5t-129.5 523.5q0 186 30.5 332t92.5 252t161 162.5t230 56.5q156 0 249 -78t120 -197l-102 -18q-22 93 -94.5 144.5t-184.5 51.5q-185 0 -285 -165t-106 -492 q63 65 165 111.5t226 46.5zM633 72q145 0 240.5 92.5t95.5 267.5q0 163 -89.5 259.5t-244.5 96.5q-123 0 -222 -51.5t-161 -122.5q6 -153 37.5 -262t84.5 -168.5t116 -85.5t143 -26z" />
<glyph unicode="7" horiz-adv-x="817" d="M-45 1454h883v-100q-413 -610 -617 -1354h-117q201 709 623 1354h-772v100z" />
<glyph unicode="8" horiz-adv-x="1193" d="M764 750q161 -61 235 -151t74 -224q0 -181 -121.5 -290.5t-353.5 -109.5q-231 0 -354 99t-123 286q0 249 299 402q-115 49 -174.5 130t-59.5 208q0 169 104.5 272t307.5 103t304.5 -102.5t101.5 -266.5q0 -68 -20 -126t-55.5 -101t-75.5 -74t-89 -55zM293 1108 q0 -70 19.5 -120t64.5 -86t104 -61t150 -48q5 -2 15.5 -5.5t15.5 -5.5q235 115 235 316q0 131 -78.5 203.5t-218.5 72.5q-146 0 -226.5 -69t-80.5 -197zM602 76q165 0 263 78t98 223q0 127 -95 204.5t-303 133.5l-49 12q-55 -26 -101.5 -58t-90 -75.5t-68.5 -101.5t-25 -123 q0 -145 100.5 -219t270.5 -74z" />
<glyph unicode="9" horiz-adv-x="1179" d="M537 1475q112 0 201.5 -41t157.5 -126t105 -226.5t37 -331.5q0 -238 -54 -409t-171 -268.5t-291 -97.5q-165 0 -265.5 76.5t-123.5 218.5l98 23q27 -117 100 -168t193 -51q193 0 298 170.5t106 492.5q-69 -64 -172.5 -106.5t-227.5 -42.5q-201 0 -314.5 111t-113.5 315 q0 202 114 331.5t323 129.5zM537 676q121 0 220 45.5t169 120.5q-7 122 -32.5 216.5t-61.5 153.5t-85.5 96.5t-100.5 52.5t-111 15q-154 0 -241 -95.5t-87 -266.5q0 -172 87 -255t243 -83z" />
<glyph unicode=":" horiz-adv-x="425" d="M213 799q42 0 71 29t29 71q0 43 -28.5 72.5t-71.5 29.5t-71.5 -29.5t-28.5 -72.5q0 -42 29 -71t71 -29zM213 -25q42 0 71 29.5t29 71.5q0 44 -28.5 73t-71.5 29t-71.5 -29t-28.5 -73q0 -42 29 -71.5t71 -29.5z" />
<glyph unicode=";" horiz-adv-x="428" d="M213 799q42 0 71 29t29 71q0 43 -28.5 72.5t-71.5 29.5t-71.5 -29.5t-28.5 -72.5q0 -42 29 -71t71 -29zM307 14q0 69 -29.5 108.5t-76.5 39.5q-44 0 -66 -27.5t-22 -71.5q41 0 66.5 -22t25.5 -59q0 -38 -14.5 -68.5t-25.5 -40.5t-36 -28q-4 -4 -6 -5l41 -63 q143 92 143 237z" />
<glyph unicode="&#x3c;" horiz-adv-x="1163" d="M940 1010l-661 -361l661 -360l-4 -103l-754 416v96l754 414z" />
<glyph unicode="=" horiz-adv-x="1224" d="M1042 879h-860v-93h860v93zM1042 510h-860v-92h860v92z" />
<glyph unicode="&#x3e;" horiz-adv-x="1163" d="M227 1112l754 -414v-96l-754 -416l-4 103l662 360l-662 361z" />
<glyph unicode="?" horiz-adv-x="1003" d="M100 1239l97 -25q44 166 237 166q144 0 211.5 -76.5t67.5 -207.5q0 -38 -6.5 -73t-16 -64t-27 -57.5t-32.5 -49.5t-41 -45.5t-44.5 -40t-50 -37.5t-50 -33.5t-52 -33t-49.5 -31.5l12 -219h95l10 186q13 9 50.5 33.5t59 39.5t58.5 44.5t59.5 54.5t50.5 64t44 78t27 91 t11 109q0 170 -97 266.5t-286 96.5q-138 0 -218.5 -55t-119.5 -181zM406 -25q42 0 71 29.5t29 71.5q0 44 -28.5 73t-71.5 29t-73 -29t-30 -73q0 -41 30 -71t73 -30z" />
<glyph unicode="@" horiz-adv-x="2209" d="M1128 1466q415 0 657.5 -236.5t242.5 -656.5q0 -129 -19 -229t-51.5 -164t-79 -105t-97.5 -58t-112 -17q-207 0 -260 195q-48 -89 -142 -142t-223 -53q-185 0 -295 126.5t-110 348.5q0 229 123.5 368.5t324.5 139.5q187 0 312 -102l12 82h90v-637q0 -125 46.5 -179.5 t133.5 -54.5q59 0 103 24.5t77.5 79.5t50.5 149.5t17 227.5q0 368 -215 584.5t-586 216.5q-186 0 -341.5 -58.5t-266.5 -167t-173 -270.5t-62 -362q0 -182 41 -325.5t110 -236.5t165.5 -154.5t201 -87t223.5 -25.5q111 0 211 22t147 43t80 43l11 -94q-157 -102 -449 -102 q-142 0 -265 31.5t-230.5 102t-184 175.5t-120.5 260t-44 348q0 225 72.5 406.5t200 299.5t299.5 181t374 63zM1063 94q144 0 237 79t93 228v383q-113 105 -285 105q-164 0 -261 -107.5t-97 -306.5q0 -188 84.5 -284.5t228.5 -96.5z" />
<glyph unicode="A" horiz-adv-x="1447" d="M1268 94q40 -12 143 -12l-4 -88q-38 -10 -102 -10q-60 0 -92.5 18t-51.5 70l-139 358h-717l-168 -430h-117l578 1446l129 22zM342 526h643l-321 826z" />
<glyph unicode="B" horiz-adv-x="1308" d="M946 772q133 -41 215 -133t82 -233q0 -196 -124.5 -301t-373.5 -105h-516v1352h-172v90q81 18 158 18q69 0 102 -33q176 48 312 48q268 0 400 -102t132 -286q0 -231 -215 -315zM1047 1071q0 303 -418 303q-129 0 -285 -24v-547h336q367 0 367 268zM739 100q203 0 296 77 t93 231q0 139 -102 218t-276 79h-406v-605h395z" />
<glyph unicode="C" horiz-adv-x="1423" d="M842 78q-274 0 -433 169.5t-159 471.5q0 161 39.5 286.5t111 205.5t168.5 121.5t215 41.5q212 0 321 -92t114 -260l112 12q0 195 -141.5 318t-407.5 123q-294 0 -471.5 -198.5t-177.5 -559.5q0 -350 189 -546t507 -196q128 0 237.5 25.5t162.5 52t92 56.5l-27 102 q-187 -133 -452 -133z" />
<glyph unicode="D" horiz-adv-x="1536" d="M643 1475q185 0 331.5 -57.5t240 -159t142 -237t48.5 -296.5q0 -160 -49 -292.5t-142 -229t-237 -150t-326 -53.5h-422v1352h-172v90q81 18 158 18q64 0 102 -33q151 48 326 48zM651 102q161 0 284 47t199 132t114 197t38 247q0 108 -23.5 203t-74 177t-125 141 t-182 92.5t-238.5 33.5q-163 0 -299 -24v-1246h307z" />
<glyph unicode="E" horiz-adv-x="1159" d="M309 682v-582h778v-100h-892v1454h892l-10 -100h-768v-574h717v-98h-717z" />
<glyph unicode="F" horiz-adv-x="1067" d="M1034 1358l-725 -2v-576h674v-98h-674v-682h-114v1454h849z" />
<glyph unicode="G" horiz-adv-x="1583" d="M1368 752q64 0 64 -60v-692h-89l-8 248q-70 -136 -206 -204.5t-318 -68.5q-314 0 -496 199.5t-182 550.5q0 183 50.5 326t142.5 235.5t220 140.5t285 48q234 0 375 -105t164 -293l-113 -20q-17 148 -129.5 232.5t-296.5 84.5q-274 0 -427.5 -170.5t-153.5 -478.5 q0 -305 152.5 -477t420.5 -172q107 0 197 28t159.5 83.5t108.5 147.5t39 212v112h-475v93h516z" />
<glyph unicode="H" horiz-adv-x="1538" d="M1313 92q55 -10 155 -10l-4 -88q-48 -10 -125 -10q-70 0 -105.5 24t-35.5 88v561h-889v-657h-114v1454h114v-690h889v690h115v-1362z" />
<glyph unicode="I" horiz-adv-x="501" d="M195 1454v-1454h114v1454h-114z" />
<glyph unicode="J" horiz-adv-x="923" d="M731 1454h-115v-1089q0 -156 -66 -222.5t-210 -66.5q-152 0 -281 59l-10 -102q128 -58 297 -58q192 0 288.5 90t96.5 291v1098z" />
<glyph unicode="K" horiz-adv-x="1273" d="M1044 160q36 -53 70.5 -65.5t142.5 -12.5l-4 -88q-48 -10 -98 -10q-71 0 -111 19.5t-81 80.5l-390 573h-264v-657h-114v1454h114v-690h264l545 702l121 -20l-580 -733z" />
<glyph unicode="L" horiz-adv-x="1087" d="M309 104h760v-104h-874v1454h114v-1350z" />
<glyph unicode="M" horiz-adv-x="1865" d="M1651 92q52 -10 143 -10l-4 -88q-48 -10 -121 -10q-72 0 -101 22.5t-32 91.5l-31 1190l-524 -1098h-111l-526 1098l-35 -1288h-114l34 1446l152 22l545 -1149l536 1135h158z" />
<glyph unicode="N" horiz-adv-x="1517" d="M1210 1454h113v-1454h-102l-914 1268v-1268h-112v1446l102 22l913 -1273v1259z" />
<glyph unicode="O" horiz-adv-x="1630" d="M815 -25q208 0 364.5 98t238 267.5t81.5 384.5t-81.5 384.5t-238 267.5t-364.5 98q-207 0 -363.5 -98t-237.5 -267.5t-81 -384.5t81 -384.5t237.5 -267.5t363.5 -98zM815 78q-262 0 -413.5 178t-151.5 469q0 292 152.5 469.5t412.5 177.5q262 0 413.5 -177.5 t151.5 -469.5q0 -291 -151.5 -469t-413.5 -178z" />
<glyph unicode="P" horiz-adv-x="1183" d="M625 1475q252 0 388 -124.5t136 -346.5q0 -215 -138.5 -329t-402.5 -114h-264v-561h-115v1352h-172v90q81 18 158 18q69 0 102 -33q158 48 308 48zM610 659q223 0 325.5 85.5t102.5 259.5q0 370 -413 370q-133 0 -281 -24v-691h266z" />
<glyph unicode="Q" horiz-adv-x="1630" d="M1063 -61q76 -119 133.5 -164t144.5 -45q82 0 132 16l-9 -98q-79 -17 -143 -17q-114 0 -190 53t-158 189l-66 109q-54 -7 -92 -7q-207 0 -363.5 98t-237.5 267.5t-81 384.5t81 384.5t237.5 267.5t363.5 98q208 0 364.5 -98t238 -267.5t81.5 -384.5q0 -268 -127.5 -462.5 t-349.5 -258.5zM250 725q0 -291 151.5 -469t413.5 -178t413.5 178t151.5 469q0 292 -151.5 469.5t-413.5 177.5q-260 0 -412.5 -177.5t-152.5 -469.5z" />
<glyph unicode="R" horiz-adv-x="1339" d="M1094 160q32 -52 67.5 -65t141.5 -13l-9 -88q-48 -10 -94 -10q-68 0 -114 24.5t-91 95.5l-323 512h-328v-616h-115v1352h-172v90q81 18 158 18q64 0 102 -33q146 48 330 48q274 0 411.5 -116t137.5 -331q0 -184 -104.5 -286.5t-288.5 -120.5zM344 1350v-635h373 q362 0 362 319q0 340 -448 340q-136 0 -287 -24z" />
<glyph unicode="S" horiz-adv-x="1228" d="M225 1090q0 288 355 288q175 0 268 -60.5t113 -189.5l108 23q-24 160 -140.5 242t-348.5 82q-224 0 -344.5 -101.5t-120.5 -292.5q0 -91 30.5 -158.5t82 -108t118.5 -68.5t141 -45t147.5 -32.5t140.5 -37t118.5 -52t82 -83.5t30.5 -127q0 -149 -106 -221t-292 -72 q-140 0 -266 42.5t-207 96.5l-16 -111q209 -129 491 -129q256 0 382 102t126 294q0 82 -25 145t-68 102.5t-100 69.5t-121.5 46t-132 33t-132 30.5t-121.5 37.5t-100 54.5t-68 81.5t-25 119z" />
<glyph unicode="T" horiz-adv-x="1126" d="M1110 1454v-104h-489v-1350h-115v1350h-492v92q168 12 330 12h766z" />
<glyph unicode="U" horiz-adv-x="1507" d="M1327 1454h-115v-901q0 -240 -111 -357.5t-335 -117.5t-329 117t-105 362v786q0 61 -26.5 88t-90.5 27q-93 0 -170 -14v-86h172v-801q0 -292 134 -437t415 -145q279 0 420 146t141 432v901z" />
<glyph unicode="V" horiz-adv-x="1374" d="M1249 1468l117 -22l-580 -1446h-133l-510 1358h-155v86q78 16 143 16q56 0 85.5 -21t45.5 -63l459 -1247z" />
<glyph unicode="W" horiz-adv-x="1978" d="M1845 1468l115 -22l-447 -1446h-129l-346 1280l-346 -1280h-129l-409 1358h-156v86q83 16 145 16q57 0 86.5 -21t44.5 -75l353 -1204l350 1294h125l350 -1296z" />
<glyph unicode="X" horiz-adv-x="1384" d="M1200 94q46 -12 143 -12l-4 -88q-40 -10 -102 -10q-56 0 -86 20.5t-72 85.5l-377 576l-460 -666h-129l520 739l-428 617h-164v86q61 18 129 18q52 0 84.5 -17t56.5 -52l391 -582l443 664l115 -23l-488 -711z" />
<glyph unicode="Y" horiz-adv-x="1245" d="M1126 1468l111 -22l-532 -846v-600h-115v600l-447 758h-155v86q53 16 123 16q60 0 88 -16t57 -68l391 -678z" />
<glyph unicode="Z" horiz-adv-x="1253" d="M1184 1366l-944 -1266h931v-100h-1062l-13 90l942 1264h-911v90q112 10 287 10h755z" />
<glyph unicode="[" horiz-adv-x="739" d="M629 1563h-297v-1835h297v-97h-406v2028h406v-96z" />
<glyph unicode="\" horiz-adv-x="763" d="M109 1659h-109l655 -2028h109z" />
<glyph unicode="]" horiz-adv-x="739" d="M516 1659v-2028h-403v97h295v1835h-295v96h403z" />
<glyph unicode="_" horiz-adv-x="942" d="M831 0h-718v-96h718v96z" />
<glyph unicode="`" horiz-adv-x="763" d="M346 1460l-123 -10l219 -324h99z" />
<glyph unicode="a" horiz-adv-x="1159" d="M942 90q65 -10 145 -10l-4 -86q-62 -8 -114 -8q-71 0 -102 34t-31 107v68q-58 -104 -159 -162t-235 -58q-148 0 -233.5 78t-85.5 211q0 142 103.5 224.5t310.5 82.5q157 0 299 -36v90q0 138 -73 212t-216 74q-130 0 -198.5 -53.5t-86.5 -159.5l-108 19q14 66 40.5 115.5 t71.5 89.5t115.5 61t165.5 21q193 0 294 -97.5t101 -279.5v-537zM467 66q153 0 261 103t108 239v43q-142 36 -291 36q-160 0 -237 -58t-77 -163q0 -99 62.5 -149.5t173.5 -50.5z" />
<glyph unicode="b" horiz-adv-x="1179" d="M592 1004q213 0 329.5 -134t116.5 -383q0 -237 -129 -374.5t-381 -137.5q-222 0 -366 105v1374h108v-618q47 77 128.5 122.5t193.5 45.5zM537 72q187 0 288 107.5t101 309.5q0 200 -85.5 309t-252.5 109q-75 0 -136.5 -25.5t-100.5 -67.5t-60 -93t-21 -105v-473 q94 -71 267 -71z" />
<glyph unicode="c" horiz-adv-x="1120" d="M963 205q-28 -24 -52 -41.5t-68 -41.5t-103 -37t-128 -13q-166 0 -263 105.5t-97 311.5q0 194 93.5 306t254.5 112q249 0 268 -243l107 12q-8 148 -101 238t-272 90q-146 0 -251.5 -67.5t-157.5 -183t-52 -266.5q0 -255 125.5 -383.5t343.5 -128.5q233 0 379 131z" />
<glyph unicode="d" horiz-adv-x="1208" d="M1008 90q62 -10 151 -10l-4 -86q-58 -8 -125 -8q-66 0 -98.5 35t-32.5 129v14q-50 -84 -138 -136.5t-210 -52.5q-184 0 -297 131.5t-113 372.5q0 243 125.5 384t333.5 141q184 0 299 -80v530h109v-1364zM567 72q141 0 236.5 89.5t95.5 207.5v446q-114 92 -295 92 q-162 0 -257 -116.5t-95 -311.5q0 -107 25.5 -187.5t70 -127.5t99.5 -69.5t120 -22.5z" />
<glyph unicode="e" horiz-adv-x="1130" d="M252 465q12 -393 371 -393q113 0 199.5 36.5t121.5 71.5l29 -96q-49 -41 -146 -75t-219 -34q-226 0 -346.5 134t-120.5 387q0 232 119 370t318 138q135 0 229.5 -64.5t138 -168t43.5 -236.5v-70h-737zM582 907q-138 0 -226 -88t-102 -268h627q-4 174 -85.5 265t-213.5 91 z" />
<glyph unicode="f" horiz-adv-x="688" d="M508 1376q-176 0 -176 -188v-205h332v-92h-332v-891h-109v891h-192v92h192v203q0 289 266 289q105 0 199 -35l-10 -97q-76 33 -170 33z" />
<glyph unicode="g" horiz-adv-x="1077" d="M774 166q137 -1 206 -68.5t69 -171.5q0 -141 -121.5 -228t-354.5 -87q-234 0 -343 68.5t-109 203.5q0 143 139 226q-86 50 -86 147q0 124 143 205q-114 82 -114 231q0 137 96.5 224.5t269.5 87.5q125 0 213 -48q26 92 89.5 138.5t172.5 50.5l13 -101q-85 -3 -135.5 -36 t-75.5 -97q90 -84 90 -213q0 -138 -96 -222.5t-271 -84.5q-114 0 -192 37q-58 -36 -82.5 -70t-24.5 -75q0 -61 40.5 -89t125.5 -28h338zM569 922q-124 0 -193 -60t-69 -168q0 -106 68.5 -163.5t193.5 -57.5q124 0 193 58t69 163q0 107 -69.5 167.5t-192.5 60.5zM582 -297 q173 0 265.5 58t92.5 149q0 78 -51 121t-150 43h-338q-19 0 -51 4q-121 -64 -121 -180q0 -95 80.5 -145t272.5 -50z" />
<glyph unicode="h" horiz-adv-x="1218" d="M1001 88q49 -8 148 -8l-4 -86q-41 -8 -121 -8q-76 0 -103.5 22.5t-27.5 89.5v490q0 317 -285 317q-143 0 -240.5 -97t-97.5 -222v-586h-108v1454h108v-655q53 93 146 149t219 56q186 0 276 -106t90 -300v-510z" />
<glyph unicode="i" horiz-adv-x="436" d="M166 1223q37 0 61.5 24.5t24.5 59.5q0 36 -25 61t-61 25q-35 0 -59.5 -25.5t-24.5 -60.5t24.5 -59.5t59.5 -24.5zM221 88v895h-108v-883q0 -66 27.5 -90t97.5 -24q74 0 124 8l5 86q-99 0 -146 8z" />
<glyph unicode="j" horiz-adv-x="466" d="M260 1223q37 0 61.5 24.5t24.5 59.5q0 36 -25 61t-61 25q-35 0 -59.5 -25.5t-24.5 -60.5t24.5 -59.5t59.5 -24.5zM315 983h-108v-1163q0 -59 -26.5 -85t-84.5 -26q-49 0 -100 21l-8 -97q66 -22 127 -22q103 0 151.5 49t48.5 154v1169z" />
<glyph unicode="k" horiz-adv-x="1009" d="M836 100q39 -20 151 -20l-4 -86q-36 -8 -104 -8q-52 0 -84 15t-58 54l-280 443l-187 -187v-311h-108v1454h108v-1014l553 553l119 -10l-410 -412z" />
<glyph unicode="l" horiz-adv-x="497" d="M162 1454v-1345q0 -70 33 -96.5t118 -26.5q75 0 131 6l5 86q-133 0 -179 14v1362h-108z" />
<glyph unicode="m" horiz-adv-x="1851" d="M1634 88q62 -10 146 -10l-4 -86q-54 -8 -119 -8q-77 0 -104 22t-27 88v504q0 307 -264 307q-125 0 -209 -94t-84 -209v-602h-109l2 594q-3 311 -264 311q-126 0 -209.5 -94t-83.5 -209v-602h-108v881q-41 20 -125 20l2 84q40 12 78 12q77 0 115 -39.5t38 -130.5v-12 q47 86 127 137.5t186 51.5q129 0 212 -61t116 -171q42 104 129.5 168t206.5 64q172 0 262 -107.5t90 -298.5v-510z" />
<glyph unicode="n" horiz-adv-x="1253" d="M1036 88q47 -8 146 -8l-4 -86q-41 -8 -121 -8q-76 0 -102.5 22.5t-26.5 87.5v492q0 317 -287 317q-143 0 -240.5 -97t-97.5 -222v-586h-108v881q-39 20 -123 20l2 84q42 12 78 12q151 0 151 -159v-39q53 93 146 149t219 56q187 0 277.5 -106t90.5 -300v-510z" />
<glyph unicode="o" d="M141 487q0 -239 131.5 -375.5t343.5 -136.5q214 0 345 136t131 376q0 243 -131 380t-345 137q-213 0 -344 -136t-131 -381zM252 487q0 199 98 309.5t266 110.5t266.5 -110.5t98.5 -309.5q0 -198 -98.5 -306.5t-266.5 -108.5t-266 108.5t-98 306.5z" />
<glyph unicode="p" horiz-adv-x="1214" d="M633 1004q209 0 324.5 -132.5t115.5 -373.5q0 -249 -127.5 -386t-370.5 -137q-148 0 -270 56v-400h-108v1250q-36 20 -125 20l2 84q36 12 82 12q71 0 110 -42.5t39 -125.5q47 80 130.5 127.5t197.5 47.5zM573 72q185 0 287.5 105.5t102.5 316.5q0 202 -87.5 307.5 t-254.5 105.5q-140 0 -228 -88.5t-88 -204.5v-477q112 -65 268 -65z" />
<glyph unicode="q" horiz-adv-x="1177" d="M627 1004q242 0 389 -101v-1272h-109v521q-53 -80 -143 -128.5t-213 -48.5q-186 0 -298 127t-112 371q0 247 130 389t356 142zM575 72q75 0 139.5 26t105.5 67t64 89.5t23 95.5v500q-112 57 -278 57q-174 0 -275.5 -112.5t-101.5 -319.5q0 -202 88.5 -302.5t234.5 -100.5 z" />
<glyph unicode="r" horiz-adv-x="665" d="M561 1004q50 0 80 -13l-6 -106q-24 8 -72 8q-76 0 -137.5 -59t-91 -140t-29.5 -159v-535h-108v881q-36 20 -125 20l2 84q42 12 86 12q62 0 103.5 -45.5t41.5 -134.5v-37q43 103 109.5 163.5t146.5 60.5z" />
<glyph unicode="s" horiz-adv-x="1073" d="M508 1004q-184 0 -275.5 -78.5t-91.5 -204.5q0 -80 37.5 -134t97.5 -79.5t132.5 -41t145 -27.5t132.5 -30t97.5 -57.5t37.5 -101.5q0 -90 -66 -135t-223 -45q-214 0 -364 108l-21 -100q150 -103 388 -103q397 0 397 281q0 80 -37.5 134t-97.5 79.5t-132.5 41t-145 27 t-132.5 29.5t-97.5 58t-37.5 102q0 84 62.5 133t201.5 49q133 0 201.5 -48t81.5 -126l104 19q-3 44 -23.5 84.5t-63 79.5t-122 62.5t-186.5 23.5z" />
<glyph unicode="t" horiz-adv-x="649" d="M649 891h-325v-668q0 -88 33.5 -119.5t99.5 -31.5q72 0 157 32l9 -96q-91 -33 -185 -33q-55 0 -94 10.5t-69 37.5t-45 76.5t-15 123.5v668h-184v92h184v287h109v-287h325v-92z" />
<glyph unicode="u" d="M1016 90q55 -10 145 -10l-4 -86q-46 -8 -106 -8q-74 0 -109 33.5t-35 119.5v60q-59 -108 -160 -166t-235 -58q-166 0 -241.5 88.5t-75.5 301.5v516q-41 20 -123 20l2 84q40 10 88 10q75 0 108 -32t33 -107v-475q0 -167 55 -237t187 -70q85 0 156 33t115 86t67.5 115.5 t23.5 125.5v549h109v-893z" />
<glyph unicode="v" horiz-adv-x="999" d="M872 993l109 -12l-412 -981h-100l-350 885q-38 14 -129 14l4 82q48 12 86 12q60 0 93 -22t56 -80l291 -762z" />
<glyph unicode="w" horiz-adv-x="1476" d="M1339 993l109 -12l-322 -981h-100l-260 842l-258 -842h-102l-289 885q-41 14 -127 14l4 84q35 10 92 10q58 0 90.5 -23t50.5 -81l232 -750l252 844h112l252 -850z" />
<glyph unicode="x" horiz-adv-x="1048" d="M872 92q43 -14 125 -14l-4 -86q-32 -8 -84 -8q-43 0 -70.5 13.5t-50.5 45.5l-264 391l-305 -434h-119l355 494l-277 393q-58 12 -127 12l2 84q58 10 92 10q43 0 69.5 -12t53.5 -53l258 -379l320 446l110 -12l-360 -491z" />
<glyph unicode="y" horiz-adv-x="1034" d="M899 993l117 -12l-492 -1182q-43 -99 -108.5 -143.5t-173.5 -44.5q-66 0 -129 22l-9 99q84 -25 134 -25q75 0 119 25.5t71 91.5l70 172l-387 889q-41 14 -101 14l4 84q25 10 74 10q50 0 80 -21t53 -73l330 -770z" />
<glyph unicode="z" horiz-adv-x="958" d="M889 891l-690 -799h690v-92h-807l-10 92l688 799h-651v92h768z" />
<glyph unicode="{" horiz-adv-x="851" d="M567 1569q-159 0 -159 -148q0 -57 21.5 -134t47 -141.5t47 -144t21.5 -139.5q0 -79 -34 -131t-108 -86q74 -34 108 -86t34 -131q0 -60 -21.5 -139.5t-47 -144t-47 -141.5t-21.5 -134q0 -148 159 -148h174v-90h-200q-238 0 -238 226q0 63 22 143t48.5 144.5t48.5 142.5 t22 137q0 79 -43.5 126.5t-124.5 47.5h-53v94h53q81 0 124.5 48t43.5 128q0 59 -22 136.5t-48.5 142t-48.5 144.5t-22 143q0 225 238 225h200v-90h-174z" />
<glyph unicode="|" horiz-adv-x="555" d="M223 1659v-2028h109v2028h-109z" />
<glyph unicode="}" horiz-adv-x="851" d="M578 692h51v-94h-51q-81 0 -125.5 -47.5t-44.5 -126.5q0 -59 22 -137t48.5 -142.5t48.5 -144.5t22 -143q0 -226 -236 -226h-200v90h174q159 0 159 148q0 57 -21.5 134t-47 141.5t-47 144t-21.5 139.5q0 80 33.5 131.5t106.5 85.5q-73 34 -106.5 85.5t-33.5 131.5 q0 60 21.5 139.5t47 144t47 141.5t21.5 134q0 148 -159 148h-174v90h200q236 0 236 -225q0 -63 -22 -143t-48.5 -144.5t-48.5 -142t-22 -136.5q0 -80 44.5 -128t125.5 -48z" />
<glyph unicode="~" horiz-adv-x="1130" d="M948 770q-19 -199 -186 -199q-69 0 -203.5 34t-193.5 34q-89 0 -105 -121l-78 10q19 199 187 199q69 0 204 -34t193 -34q48 0 72.5 27.5t31.5 95.5z" />
<glyph unicode="&#xa1;" horiz-adv-x="425" d="M213 834q43 0 71.5 28.5t28.5 71.5t-28.5 72.5t-71.5 29.5t-71.5 -29.5t-28.5 -72.5t28.5 -71.5t71.5 -28.5zM150 -369h126l-10 983h-106z" />
<glyph unicode="&#xa2;" horiz-adv-x="1116" d="M983 344q-136 -127 -362 -131l-5 -213h-92l6 217q-187 21 -292 151.5t-105 368.5q0 225 110.5 369.5t309.5 157.5l4 211h92l-6 -211q155 -13 237.5 -101t88.5 -225l-105 -12q-19 217 -223 241l-18 -858q186 6 335 133zM244 739q0 -188 76 -295t212 -129l19 852 q-145 -13 -226 -126.5t-81 -301.5z" />
<glyph unicode="&#xa3;" horiz-adv-x="1155" d="M399 582v-482h615v-100h-881v100h152v482h-152v100h152v373q0 192 103.5 306t309.5 114q186 0 324 -93l-33 -100q-65 41 -133 65.5t-158 24.5q-141 0 -220 -84t-79 -254v-352h443v-100h-443z" />
<glyph unicode="&#xa4;" horiz-adv-x="1398" d="M1171 733q0 -207 -120 -336l215 -229l-58 -59l-219 233q-125 -92 -291 -92q-163 0 -288 92l-220 -233l-57 59l213 229q-121 134 -121 336q0 206 121 340l-213 230l57 59l220 -234q126 93 288 93q163 0 289 -93l221 234l58 -59l-215 -230q120 -133 120 -340zM334 733 q0 -179 102 -283t262 -104q162 0 263.5 104t101.5 283q0 183 -101.5 287t-263.5 104q-161 0 -262.5 -104t-101.5 -287z" />
<glyph unicode="&#xa5;" horiz-adv-x="1384" d="M1202 1454l-452 -766h368v-88h-368v-178h368v-88h-368v-334h-115v334h-367v88h367v178h-367v88h367l-453 766h119l391 -678l391 678h119z" />
<glyph unicode="&#xa6;" horiz-adv-x="555" d="M223 1659v-819h109v819h-109zM223 451v-820h109v820h-109z" />
<glyph unicode="&#xa7;" horiz-adv-x="1263" d="M795 258q126 -40 197 -107.5t71 -187.5q0 -153 -107.5 -234t-312.5 -81q-258 0 -430 127l14 108q182 -135 414 -135q313 0 313 221q0 53 -26 93t-70 65t-101 45t-120 36.5t-125.5 34t-119.5 43t-101 59t-70 86t-26 120.5q0 114 73 188t193 111q-58 21 -100.5 45.5 t-80.5 61.5t-57.5 90.5t-19.5 121.5q0 156 110 251.5t326 95.5q371 0 424 -304l-109 -22q-22 120 -96 175.5t-219 55.5q-153 0 -240.5 -61.5t-87.5 -185.5q0 -78 41.5 -133t107 -85t145.5 -53.5t160 -48t145.5 -58t107 -94t41.5 -145.5q0 -214 -264 -299zM303 557 q0 -49 22.5 -88.5t47.5 -62.5t85.5 -47t92 -33t110.5 -29q5 -1 7 -2q65 17 111 36t87.5 48.5t62.5 72.5t21 99q0 48 -19 85.5t-46.5 61t-75.5 44.5t-87.5 33t-100.5 28q-21 5 -31 8q-287 -54 -287 -254z" />
<glyph unicode="&#xa8;" horiz-adv-x="899" d="M301 1225q34 0 55 22t21 56t-21 55.5t-55 21.5t-56 -21.5t-22 -55.5t22 -56t56 -22zM598 1225q34 0 56 22t22 56t-22 55.5t-56 21.5q-33 0 -55.5 -22t-22.5 -55t22.5 -55.5t55.5 -22.5z" />
<glyph unicode="&#xa9;" horiz-adv-x="2148" d="M133 672q0 -223 71.5 -405.5t197 -304t298 -187.5t373.5 -66q202 0 374.5 66t298.5 187.5t197.5 304t71.5 405.5t-71 405.5t-197 303.5t-298.5 187t-375.5 66q-162 0 -305 -40.5t-259 -121.5t-200 -195.5t-130 -269t-46 -335.5zM236 672q0 205 62.5 370t174 273.5 t265 166.5t335.5 58q183 0 337 -58t266 -166.5t174.5 -273.5t62.5 -370t-62.5 -370t-174.5 -274t-266 -167t-337 -58q-182 0 -335.5 58t-265 167t-174 274t-62.5 370zM1434 387q-28 -24 -52 -41.5t-68 -41.5t-102.5 -37t-126.5 -13q-167 0 -263.5 106t-96.5 312 q0 194 92.5 306t253.5 112q252 0 268 -244l107 12q-6 148 -100 238t-273 90q-217 0 -339 -143t-122 -373q0 -255 126 -383.5t345 -128.5q231 0 377 131z" />
<glyph unicode="&#xaa;" horiz-adv-x="849" d="M690 846q36 -8 103 -8l-2 -70q-60 -6 -84 -6q-58 0 -81.5 27t-23.5 88v18q-40 -66 -109.5 -102.5t-158.5 -36.5q-102 0 -161.5 54.5t-59.5 147.5q0 100 72.5 158t215.5 58q93 0 201 -25v59q0 92 -48 142.5t-142 50.5q-168 0 -193 -144l-86 15q21 97 84.5 150t194.5 53 q137 0 207.5 -68.5t70.5 -198.5v-362zM356 825q102 0 174 69.5t72 160.5v32q-94 25 -188 25q-213 0 -213 -151q0 -66 40.5 -101t114.5 -35z" />
<glyph unicode="&#xab;" horiz-adv-x="923" d="M479 870l-297 -288l297 -263l-61 -63l-342 313v21l344 344zM770 870l-297 -288l297 -263l-61 -63l-342 313v21l344 344z" />
<glyph unicode="&#xad;" horiz-adv-x="819" d="M688 635h-555v-94h555v94z" />
<glyph unicode="&#xae;" horiz-adv-x="1134" d="M567 1491q188 0 306 -112.5t118 -305.5t-118 -305.5t-306 -112.5t-306 112.5t-118 305.5t118 305.5t306 112.5zM567 705q163 0 265 94t102 274t-102 274.5t-265 94.5t-264.5 -94.5t-101.5 -274.5t101.5 -274t264.5 -94zM707 913q8 -16 23 -22t50 -6v-47q-4 -1 -11.5 -3 t-14.5 -3t-15 -1q-29 0 -48.5 10t-35.5 38l-80 143h-90v-184h-71v419h-49v54h213q87 0 132.5 -37t45.5 -109q0 -115 -115 -137zM485 1257v-182h88q111 0 111 90q0 92 -111 92h-88z" />
<glyph unicode="&#xaf;" horiz-adv-x="1042" d="M223 1331v-90h596v90h-596z" />
<glyph unicode="&#xb0;" horiz-adv-x="800" d="M401 983q110 0 179 68t69 174t-69 173.5t-179 67.5q-112 0 -179.5 -67t-67.5 -174t68 -174.5t179 -67.5zM401 1059q-75 0 -120 45.5t-45 120.5t45 120.5t120 45.5q74 0 119 -45.5t45 -120.5t-45 -120.5t-119 -45.5z" />
<glyph unicode="&#xb1;" horiz-adv-x="1165" d="M508 258v344h-326v96h326v344h104v-344h326v-96h-326v-344h-104zM182 98h801v-98h-801v98z" />
<glyph unicode="&#xb4;" horiz-adv-x="763" d="M418 1460l-195 -334h101l217 324z" />
<glyph unicode="&#xb6;" horiz-adv-x="1216" d="M684 688v649q0 76 -29 107t-110 31q-166 0 -268.5 -103.5t-102.5 -290.5q0 -190 113 -291.5t319 -101.5h78zM911 1475q-61 0 -87.5 -27t-26.5 -88v-1565h114v1579h172v86q-72 15 -172 15z" />
<glyph unicode="&#xb7;" horiz-adv-x="425" d="M213 516q43 0 71.5 28.5t28.5 71.5t-28.5 72t-71.5 29t-71.5 -29t-28.5 -72t28.5 -71.5t71.5 -28.5z" />
<glyph unicode="&#xb8;" horiz-adv-x="739" d="M346 -72l16 90h-69l-33 -143q91 0 129.5 -19t38.5 -63q0 -56 -48 -81t-144 -25l-13 -78q150 0 221.5 44t71.5 144q0 66 -45.5 98.5t-124.5 32.5z" />
<glyph unicode="&#xba;" horiz-adv-x="892" d="M113 1114q0 -169 91 -263.5t242 -94.5t242.5 94.5t91.5 263.5t-92 265t-242 96q-151 0 -242 -95.5t-91 -265.5zM209 1114q0 131 63 205t174 74t174.5 -74t63.5 -205q0 -132 -63.5 -204t-174.5 -72t-174 72t-63 204z" />
<glyph unicode="&#xbb;" horiz-adv-x="923" d="M557 590v-21l-342 -313l-61 63l297 263l-297 288l59 64zM504 934l344 -344v-21l-342 -313l-62 63l297 263l-297 288z" />
<glyph unicode="&#xbc;" horiz-adv-x="1748" d="M1403 1475l106 -7l-1052 -1493l-107 7zM252 758h188v616q-33 -20 -114.5 -51.5t-145.5 -50.5l-16 80q177 52 276 114h95v-708h145v-74h-428v74zM1487 311h139v-75h-139v-236h-90v236h-381l-21 67l406 479h86v-471zM1092 311h305v355z" />
<glyph unicode="&#xbd;" horiz-adv-x="1814" d="M1403 1475l106 -7l-1052 -1493l-107 7zM252 758h188v616q-33 -20 -114.5 -51.5t-145.5 -50.5l-16 80q177 52 276 114h95v-708h145v-74h-428v74zM1233 76h459v-76h-555v51q0 56 24.5 102t64 78t87.5 60.5t96 54.5t87.5 53.5t64 65t24.5 82.5q0 168 -190 168 q-74 0 -114.5 -26.5t-59.5 -86.5l-91 16q53 177 269 177q140 0 210 -64t70 -182q0 -63 -31.5 -115t-78.5 -84.5t-103.5 -66t-105.5 -60t-85 -65t-42 -82.5z" />
<glyph unicode="&#xbe;" horiz-adv-x="1718" d="M702 895q0 -100 -73.5 -163.5t-206.5 -63.5q-205 0 -258 149l80 27q32 -101 180 -101q86 0 138 40.5t52 115.5q0 73 -53.5 114.5t-140.5 41.5h-70v67h70q71 0 119.5 37.5t48.5 102.5q0 63 -41 101t-125 38q-73 0 -115 -28.5t-53 -76.5l-84 17q18 81 83.5 121.5 t168.5 40.5q123 0 187.5 -55.5t64.5 -151.5q0 -129 -133 -176q161 -48 161 -197zM1386 1475l107 -7l-1053 -1493l-106 7zM1458 311h137v-75h-137v-236h-92v236h-381l-20 67l405 479h88v-471zM1063 311h303v355z" />
<glyph unicode="&#xbf;" horiz-adv-x="1005" d="M565 834q43 0 73 29t30 71q0 43 -30 72.5t-73 29.5t-71.5 -29.5t-28.5 -72.5t28.5 -71.5t71.5 -28.5zM905 -154l-82 33q-31 -88 -88.5 -131t-175.5 -43q-128 0 -198 71t-70 193q0 62 20.5 118t48.5 96t78.5 83.5t88 69.5t100.5 65l-13 226h-94l-10 -193 q-7 -5 -33.5 -22.5t-40 -27t-41.5 -31t-45 -37t-42 -41.5t-40.5 -48.5t-33.5 -54t-28 -62.5t-17 -69t-7 -78q0 -169 99.5 -260.5t271.5 -91.5q147 0 229 58t123 177z" />
<glyph unicode="&#xc0;" horiz-adv-x="1447" d="M715 1520l-101 -7l-168 209l121 19zM1268 94q40 -12 143 -12l-4 -88q-38 -10 -102 -10q-60 0 -92.5 18t-51.5 70l-139 358h-717l-168 -430h-117l578 1446l129 22zM342 526h643l-321 826z" />
<glyph unicode="&#xc1;" horiz-adv-x="1447" d="M877 1722l-168 -209l-101 7l148 221zM1268 94q40 -12 143 -12l-4 -88q-38 -10 -102 -10q-60 0 -92.5 18t-51.5 70l-139 358h-717l-168 -430h-117l578 1446l129 22zM342 526h643l-321 826z" />
<glyph unicode="&#xc2;" horiz-adv-x="1447" d="M666 1683l-160 -165l-98 14l208 211h99l209 -211l-97 -14zM1268 94q40 -12 143 -12l-4 -88q-38 -10 -102 -10q-60 0 -92.5 18t-51.5 70l-139 358h-717l-168 -430h-117l578 1446l129 22zM342 526h643l-321 826z" />
<glyph unicode="&#xc3;" horiz-adv-x="1447" d="M555 1610q-33 0 -51.5 -22.5t-22.5 -74.5l-71 11q6 85 39 126.5t98 41.5q46 0 121.5 -23.5t109.5 -23.5t52 22t22 74l72 -10q-6 -86 -38.5 -127t-99.5 -41q-46 0 -121.5 23.5t-109.5 23.5zM1268 94q40 -12 143 -12l-4 -88q-38 -10 -102 -10q-60 0 -92.5 18t-51.5 70 l-139 358h-717l-168 -430h-117l578 1446l129 22zM342 526h643l-321 826z" />
<glyph unicode="&#xc4;" horiz-adv-x="1447" d="M514 1546q-31 0 -51.5 20t-20.5 52t20.5 52t51.5 20t51.5 -20t20.5 -52t-20.5 -52t-51.5 -20zM815 1546q-30 0 -51 20t-21 52t21 52t51 20q31 0 51.5 -20t20.5 -52t-20.5 -52t-51.5 -20zM1268 94q40 -12 143 -12l-4 -88q-38 -10 -102 -10q-60 0 -92.5 18t-51.5 70 l-139 358h-717l-168 -430h-117l578 1446l129 22zM342 526h643l-321 826z" />
<glyph unicode="&#xc5;" horiz-adv-x="1447" d="M666 1495q-72 0 -114 41t-42 109t42 108.5t114 40.5q73 0 115 -40.5t42 -108.5t-42 -109t-115 -41zM666 1741q-44 0 -70.5 -25.5t-26.5 -70.5q0 -44 27 -70.5t70 -26.5q44 0 71 26.5t27 70.5q0 45 -26.5 70.5t-71.5 25.5zM1268 94q40 -12 143 -12l-4 -88 q-38 -10 -102 -10q-60 0 -92.5 18t-51.5 70l-139 358h-717l-168 -430h-117l578 1446l129 22zM342 526h643l-321 826z" />
<glyph unicode="&#xc6;" horiz-adv-x="1892" d="M1124 682v-582h697v-100h-811v682h-537l-317 -682h-117l688 1454h1094l-11 -100h-686v-574h635v-98h-635zM520 780h490v574h-224z" />
<glyph unicode="&#xc7;" horiz-adv-x="1423" d="M829 -25h-18l-8 -47q79 0 124.5 -32.5t45.5 -98.5q0 -100 -71.5 -144t-221.5 -44l12 78q193 0 193 106q0 44 -38.5 63t-129.5 19l24 105q-282 28 -445 220t-163 517q0 361 177.5 559.5t471.5 198.5q266 0 407.5 -123t141.5 -318l-112 -12q-5 168 -114 260t-321 92 q-118 0 -215 -41.5t-168.5 -121.5t-111 -205.5t-39.5 -286.5q0 -302 159 -471.5t433 -169.5q265 0 452 133l27 -102q-39 -30 -92 -56.5t-162.5 -52t-237.5 -25.5z" />
<glyph unicode="&#xc8;" horiz-adv-x="1159" d="M696 1520l-100 -7l-168 209l121 19zM309 682v-582h778v-100h-892v1454h892l-10 -100h-768v-574h717v-98h-717z" />
<glyph unicode="&#xc9;" horiz-adv-x="1159" d="M856 1722l-168 -209l-100 7l147 221zM309 682v-582h778v-100h-892v1454h892l-10 -100h-768v-574h717v-98h-717z" />
<glyph unicode="&#xca;" horiz-adv-x="1159" d="M647 1683l-160 -165l-98 14l209 211h98l209 -211l-96 -14zM309 682v-582h778v-100h-892v1454h892l-10 -100h-768v-574h717v-98h-717z" />
<glyph unicode="&#xcb;" horiz-adv-x="1159" d="M496 1546q-31 0 -51.5 20t-20.5 52t20.5 52t51.5 20t51 -20t20 -52t-20 -52t-51 -20zM797 1546q-30 0 -51 20t-21 52t21 52t51 20q31 0 51 -20t20 -52t-20 -52t-51 -20zM309 682v-582h778v-100h-892v1454h892l-10 -100h-768v-574h717v-98h-717z" />
<glyph unicode="&#xcc;" horiz-adv-x="501" d="M154 1741l-121 -19l168 -209l100 7zM195 1454v-1454h114v1454h-114z" />
<glyph unicode="&#xcd;" horiz-adv-x="501" d="M340 1741l-147 -221l100 -7l168 209zM195 1454v-1454h114v1454h-114z" />
<glyph unicode="&#xce;" horiz-adv-x="501" d="M301 1743l209 -211l-96 -14l-162 165l-160 -165l-98 14l209 211h98zM195 0v1454h114v-1454h-114z" />
<glyph unicode="&#xcf;" horiz-adv-x="501" d="M100 1546q31 0 51.5 20t20.5 52t-20.5 52t-51.5 20t-51 -20t-20 -52t20 -52t51 -20zM401 1546q31 0 51.5 20t20.5 52t-20.5 52t-51.5 20q-30 0 -50.5 -20t-20.5 -52t20.5 -52t50.5 -20zM195 1454v-1454h114v1454h-114z" />
<glyph unicode="&#xd0;" horiz-adv-x="1536" d="M643 1475q185 0 331.5 -57.5t240 -159t142 -237t48.5 -296.5q0 -160 -49 -292.5t-142 -229t-237 -150t-326 -53.5h-422v670h-172v94h172v588h-172v90q81 18 158 18q64 0 102 -33q151 48 326 48zM651 102q161 0 284 47t199 132t114 197t38 247q0 108 -23.5 203t-74 177 t-125 141t-182 92.5t-238.5 33.5q-163 0 -299 -24v-584h285v-94h-285v-568h307z" />
<glyph unicode="&#xd1;" horiz-adv-x="1517" d="M666 1610q-33 0 -51.5 -22.5t-22.5 -74.5l-72 11q6 85 39 126.5t98 41.5q46 0 122 -23.5t110 -23.5t52 22t22 74l71 -10q-6 -86 -38 -127t-99 -41q-46 0 -121.5 23.5t-109.5 23.5zM1210 1454h113v-1454h-102l-914 1268v-1268h-112v1446l102 22l913 -1273v1259z" />
<glyph unicode="&#xd2;" horiz-adv-x="1630" d="M717 1741l-121 -19l168 -209l100 7zM815 -25q208 0 364.5 98t238 267.5t81.5 384.5t-81.5 384.5t-238 267.5t-364.5 98q-207 0 -363.5 -98t-237.5 -267.5t-81 -384.5t81 -384.5t237.5 -267.5t363.5 -98zM815 78q-262 0 -413.5 178t-151.5 469q0 292 152.5 469.5 t412.5 177.5q262 0 413.5 -177.5t151.5 -469.5q0 -291 -151.5 -469t-413.5 -178z" />
<glyph unicode="&#xd3;" horiz-adv-x="1630" d="M905 1741l-147 -221l100 -7l168 209zM815 -25q208 0 364.5 98t238 267.5t81.5 384.5t-81.5 384.5t-238 267.5t-364.5 98q-207 0 -363.5 -98t-237.5 -267.5t-81 -384.5t81 -384.5t237.5 -267.5t363.5 -98zM815 78q-262 0 -413.5 178t-151.5 469q0 292 152.5 469.5 t412.5 177.5q262 0 413.5 -177.5t151.5 -469.5q0 -291 -151.5 -469t-413.5 -178z" />
<glyph unicode="&#xd4;" horiz-adv-x="1630" d="M815 1683l-160 -165l-98 14l209 211h98l209 -211l-96 -14zM815 1475q208 0 364.5 -98t238 -267.5t81.5 -384.5t-81.5 -384.5t-238 -267.5t-364.5 -98q-207 0 -363.5 98t-237.5 267.5t-81 384.5t81 384.5t237.5 267.5t363.5 98zM815 78q262 0 413.5 178t151.5 469 q0 292 -151.5 469.5t-413.5 177.5q-260 0 -412.5 -177.5t-152.5 -469.5q0 -291 151.5 -469t413.5 -178z" />
<glyph unicode="&#xd5;" horiz-adv-x="1630" d="M1073 1731q-6 -86 -38 -127t-99 -41q-46 0 -121.5 23.5t-109.5 23.5q-33 0 -51.5 -22.5t-22.5 -74.5l-72 11q6 85 39 126.5t98 41.5q46 0 122 -23.5t110 -23.5q33 0 51 22t22 74zM815 -25q208 0 364.5 98t238 267.5t81.5 384.5t-81.5 384.5t-238 267.5t-364.5 98 q-207 0 -363.5 -98t-237.5 -267.5t-81 -384.5t81 -384.5t237.5 -267.5t363.5 -98zM815 78q-262 0 -413.5 178t-151.5 469q0 292 152.5 469.5t412.5 177.5q262 0 413.5 -177.5t151.5 -469.5q0 -291 -151.5 -469t-413.5 -178z" />
<glyph unicode="&#xd6;" horiz-adv-x="1630" d="M664 1546q31 0 51 20t20 52t-20 52t-51 20t-51.5 -20t-20.5 -52t20.5 -52t51.5 -20zM965 1546q31 0 51 20t20 52t-20 52t-51 20q-30 0 -51 -20t-21 -52t21 -52t51 -20zM815 -25q208 0 364.5 98t238 267.5t81.5 384.5t-81.5 384.5t-238 267.5t-364.5 98q-207 0 -363.5 -98 t-237.5 -267.5t-81 -384.5t81 -384.5t237.5 -267.5t363.5 -98zM815 78q-262 0 -413.5 178t-151.5 469q0 292 152.5 469.5t412.5 177.5q262 0 413.5 -177.5t151.5 -469.5q0 -291 -151.5 -469t-413.5 -178z" />
<glyph unicode="&#xd7;" horiz-adv-x="1071" d="M889 938l-289 -289l289 -289l-66 -63l-288 287l-287 -287l-66 63l289 289l-289 289l66 63l287 -286l288 286z" />
<glyph unicode="&#xd8;" horiz-adv-x="1630" d="M1280 1298q105 -102 162 -249.5t57 -323.5q0 -215 -81.5 -384.5t-238 -267.5t-364.5 -98q-227 0 -389 115l-109 -153l-102 12l139 198q-107 101 -164 250t-57 328q0 215 81 384.5t237.5 267.5t363.5 98q225 0 393 -117l127 180l105 -12zM250 725q0 -310 168 -487 l729 1032q-139 102 -332 102q-260 0 -412.5 -177.5t-152.5 -469.5zM815 78q262 0 413.5 178t151.5 469q0 306 -163 483l-730 -1032q137 -98 328 -98z" />
<glyph unicode="&#xd9;" horiz-adv-x="1507" d="M657 1741l-120 -19l168 -209l100 7zM1327 1454h-115v-901q0 -240 -111 -357.5t-335 -117.5t-329 117t-105 362v786q0 61 -26.5 88t-90.5 27q-93 0 -170 -14v-86h172v-801q0 -292 134 -437t415 -145q279 0 420 146t141 432v901z" />
<glyph unicode="&#xda;" horiz-adv-x="1507" d="M846 1741l-148 -221l101 -7l168 209zM1327 1454h-115v-901q0 -240 -111 -357.5t-335 -117.5t-329 117t-105 362v786q0 61 -26.5 88t-90.5 27q-93 0 -170 -14v-86h172v-801q0 -292 134 -437t415 -145q279 0 420 146t141 432v901z" />
<glyph unicode="&#xdb;" horiz-adv-x="1507" d="M756 1683l-160 -165l-98 14l209 211h98l209 -211l-96 -14zM1212 1454h115v-901q0 -286 -141 -432t-420 -146q-281 0 -415 145t-134 437v801h-172v86q77 14 170 14q64 0 90.5 -27t26.5 -88v-786q0 -245 105 -362t329 -117t335 117.5t111 357.5v901z" />
<glyph unicode="&#xdc;" horiz-adv-x="1507" d="M604 1546q31 0 51.5 20t20.5 52t-20.5 52t-51.5 20t-51.5 -20t-20.5 -52t20.5 -52t51.5 -20zM905 1546q31 0 51.5 20t20.5 52t-20.5 52t-51.5 20q-30 0 -50.5 -20t-20.5 -52t20.5 -52t50.5 -20zM1327 1454h-115v-901q0 -240 -111 -357.5t-335 -117.5t-329 117t-105 362 v786q0 61 -26.5 88t-90.5 27q-93 0 -170 -14v-86h172v-801q0 -292 134 -437t415 -145q279 0 420 146t141 432v901z" />
<glyph unicode="&#xdd;" horiz-adv-x="1245" d="M858 1722l-168 -209l-100 7l147 221zM1126 1468l111 -22l-532 -846v-600h-115v600l-447 758h-155v86q53 16 123 16q60 0 88 -16t57 -68l391 -678z" />
<glyph unicode="&#xde;" horiz-adv-x="1189" d="M539 1188q247 0 382.5 -111t135.5 -329q0 -217 -135 -327t-383 -110h-230v-311h-114v1454h114v-266h230zM539 410q205 0 306 79.5t101 258.5q0 180 -101 261t-306 81h-230v-680h230z" />
<glyph unicode="&#xdf;" horiz-adv-x="1140" d="M643 682q0 -25 23.5 -47t61 -41.5t83 -40.5t91 -49.5t83 -62.5t61 -85t23.5 -112q0 -132 -80 -200.5t-235 -68.5q-184 0 -287 74l8 101q125 -84 275 -84q111 0 166 43.5t55 142.5q0 64 -43.5 115.5t-105 85t-123 63.5t-105 68.5t-43.5 83.5q0 33 19 78.5t46 92.5t54 97 t46 109t19 112q0 102 -55.5 161.5t-171.5 59.5q-238 0 -238 -274v-1104h-108v1102q0 188 91.5 280.5t258.5 92.5q88 0 154 -24t104 -65.5t56 -91.5t18 -108q0 -67 -20.5 -133t-50 -116.5t-59.5 -95.5t-50.5 -86t-20.5 -73z" />
<glyph unicode="&#xe0;" horiz-adv-x="1159" d="M606 1126h-100l-217 324l123 10zM942 90q65 -10 145 -10l-4 -86q-62 -8 -114 -8q-71 0 -102 34t-31 107v68q-58 -104 -159 -162t-235 -58q-148 0 -233.5 78t-85.5 211q0 142 103.5 224.5t310.5 82.5q157 0 299 -36v90q0 138 -73 212t-216 74q-130 0 -198.5 -53.5 t-86.5 -159.5l-108 19q14 66 40.5 115.5t71.5 89.5t115.5 61t165.5 21q193 0 294 -97.5t101 -279.5v-537zM467 66q153 0 261 103t108 239v43q-142 36 -291 36q-160 0 -237 -58t-77 -163q0 -99 62.5 -149.5t173.5 -50.5z" />
<glyph unicode="&#xe1;" horiz-adv-x="1159" d="M803 1450l-217 -324h-101l195 334zM942 90q65 -10 145 -10l-4 -86q-62 -8 -114 -8q-71 0 -102 34t-31 107v68q-58 -104 -159 -162t-235 -58q-148 0 -233.5 78t-85.5 211q0 142 103.5 224.5t310.5 82.5q157 0 299 -36v90q0 138 -73 212t-216 74q-130 0 -198.5 -53.5 t-86.5 -159.5l-108 19q14 66 40.5 115.5t71.5 89.5t115.5 61t165.5 21q193 0 294 -97.5t101 -279.5v-537zM467 66q153 0 261 103t108 239v43q-142 36 -291 36q-160 0 -237 -58t-77 -163q0 -99 62.5 -149.5t173.5 -50.5z" />
<glyph unicode="&#xe2;" horiz-adv-x="1159" d="M545 1399l-195 -248l-100 4l246 315h98l246 -315l-101 -4zM942 90q65 -10 145 -10l-4 -86q-62 -8 -114 -8q-71 0 -102 34t-31 107v68q-58 -104 -159 -162t-235 -58q-148 0 -233.5 78t-85.5 211q0 142 103.5 224.5t310.5 82.5q157 0 299 -36v90q0 138 -73 212t-216 74 q-130 0 -198.5 -53.5t-86.5 -159.5l-108 19q14 66 40.5 115.5t71.5 89.5t115.5 61t165.5 21q193 0 294 -97.5t101 -279.5v-537zM467 66q153 0 261 103t108 239v43q-142 36 -291 36q-160 0 -237 -58t-77 -163q0 -99 62.5 -149.5t173.5 -50.5z" />
<glyph unicode="&#xe3;" horiz-adv-x="1159" d="M373 1325q-91 0 -103 -135l-73 10q7 102 52 155.5t122 53.5q64 0 162.5 -46t152.5 -46q46 0 69.5 30.5t30.5 106.5l74 -10q-15 -211 -172 -211q-52 0 -109.5 23t-110.5 46t-95 23zM942 90q65 -10 145 -10l-4 -86q-62 -8 -114 -8q-71 0 -102 34t-31 107v68 q-58 -104 -159 -162t-235 -58q-148 0 -233.5 78t-85.5 211q0 142 103.5 224.5t310.5 82.5q157 0 299 -36v90q0 138 -73 212t-216 74q-130 0 -198.5 -53.5t-86.5 -159.5l-108 19q14 66 40.5 115.5t71.5 89.5t115.5 61t165.5 21q193 0 294 -97.5t101 -279.5v-537zM467 66 q153 0 261 103t108 239v43q-142 36 -291 36q-160 0 -237 -58t-77 -163q0 -99 62.5 -149.5t173.5 -50.5z" />
<glyph unicode="&#xe4;" horiz-adv-x="1159" d="M397 1225q-34 0 -56 22t-22 56t22 55.5t56 21.5t55 -21.5t21 -55.5t-21 -56t-55 -22zM694 1225q-33 0 -55.5 22.5t-22.5 55.5t22.5 55t55.5 22q34 0 56 -21.5t22 -55.5t-22 -56t-56 -22zM942 90q65 -10 145 -10l-4 -86q-62 -8 -114 -8q-71 0 -102 34t-31 107v68 q-58 -104 -159 -162t-235 -58q-148 0 -233.5 78t-85.5 211q0 142 103.5 224.5t310.5 82.5q157 0 299 -36v90q0 138 -73 212t-216 74q-130 0 -198.5 -53.5t-86.5 -159.5l-108 19q14 66 40.5 115.5t71.5 89.5t115.5 61t165.5 21q193 0 294 -97.5t101 -279.5v-537zM467 66 q153 0 261 103t108 239v43q-142 36 -291 36q-160 0 -237 -58t-77 -163q0 -99 62.5 -149.5t173.5 -50.5z" />
<glyph unicode="&#xe5;" horiz-adv-x="1159" d="M547 1122q-88 0 -140.5 50t-52.5 131q0 80 52.5 130t140.5 50t139 -49.5t51 -130.5t-51 -131t-139 -50zM547 1425q-59 0 -92 -33.5t-33 -88.5t33 -89t92 -34t92 34t33 89t-33 88.5t-92 33.5zM942 90q65 -10 145 -10l-4 -86q-62 -8 -114 -8q-71 0 -102 34t-31 107v68 q-58 -104 -159 -162t-235 -58q-148 0 -233.5 78t-85.5 211q0 142 103.5 224.5t310.5 82.5q157 0 299 -36v90q0 138 -73 212t-216 74q-130 0 -198.5 -53.5t-86.5 -159.5l-108 19q14 66 40.5 115.5t71.5 89.5t115.5 61t165.5 21q193 0 294 -97.5t101 -279.5v-537zM467 66 q153 0 261 103t108 239v43q-142 36 -291 36q-160 0 -237 -58t-77 -163q0 -99 62.5 -149.5t173.5 -50.5z" />
<glyph unicode="&#xe6;" horiz-adv-x="1843" d="M965 465q12 -393 370 -393q113 0 198.5 36t123.5 72l26 -96q-46 -41 -143.5 -75t-218.5 -34q-158 0 -265.5 66.5t-158.5 194.5q-56 -123 -172.5 -192t-259.5 -69q-150 0 -237 78t-87 211q0 142 103.5 224.5t310.5 82.5q157 0 299 -36v90q0 138 -73 212t-216 74 q-129 0 -197.5 -53t-86.5 -160l-109 19q27 136 118.5 211.5t274.5 75.5q282 0 363 -201q56 96 149 148.5t213 52.5q102 0 181.5 -36.5t129.5 -101.5t75.5 -149t25.5 -182v-70h-737zM1292 907q-136 0 -224 -88t-101 -268h628q-6 175 -88 265.5t-215 90.5zM483 66 q157 0 264 102t107 242v41q-142 36 -291 36q-313 0 -313 -221q0 -99 62 -149.5t171 -50.5z" />
<glyph unicode="&#xe7;" horiz-adv-x="1120" d="M618 -72q79 0 124.5 -32.5t45.5 -98.5q0 -100 -71 -144t-221 -44l12 78q96 0 144 25t48 81q0 44 -38.5 63t-129.5 19l23 102q-194 16 -304 143.5t-110 366.5q0 151 52 266.5t157.5 183t251.5 67.5q179 0 272 -90t101 -238l-107 -12q-19 243 -268 243q-161 0 -254.5 -112 t-93.5 -306q0 -206 97 -311.5t263 -105.5q69 0 128 13t103 37t68 41.5t52 41.5l26 -99q-141 -127 -362 -131z" />
<glyph unicode="&#xe8;" horiz-adv-x="1130" d="M639 1126h-100l-217 324l122 10zM252 465q12 -393 371 -393q113 0 199.5 36.5t121.5 71.5l29 -96q-49 -41 -146 -75t-219 -34q-226 0 -346.5 134t-120.5 387q0 232 119 370t318 138q135 0 229.5 -64.5t138 -168t43.5 -236.5v-70h-737zM582 907q-138 0 -226 -88t-102 -268 h627q-4 174 -85.5 265t-213.5 91z" />
<glyph unicode="&#xe9;" horiz-adv-x="1130" d="M836 1450l-218 -324h-100l195 334zM252 465q12 -393 371 -393q113 0 199.5 36.5t121.5 71.5l29 -96q-49 -41 -146 -75t-219 -34q-226 0 -346.5 134t-120.5 387q0 232 119 370t318 138q135 0 229.5 -64.5t138 -168t43.5 -236.5v-70h-737zM582 907q-138 0 -226 -88 t-102 -268h627q-4 174 -85.5 265t-213.5 91z" />
<glyph unicode="&#xea;" horiz-adv-x="1130" d="M578 1399l-195 -248l-100 4l245 315h99l245 -315l-100 -4zM252 465q12 -393 371 -393q113 0 199.5 36.5t121.5 71.5l29 -96q-49 -41 -146 -75t-219 -34q-226 0 -346.5 134t-120.5 387q0 232 119 370t318 138q135 0 229.5 -64.5t138 -168t43.5 -236.5v-70h-737zM582 907 q-138 0 -226 -88t-102 -268h627q-4 174 -85.5 265t-213.5 91z" />
<glyph unicode="&#xeb;" horiz-adv-x="1130" d="M430 1225q-34 0 -56 22t-22 56t22 55.5t56 21.5t55 -21.5t21 -55.5t-21 -56t-55 -22zM727 1225q-33 0 -55.5 22.5t-22.5 55.5t22.5 55t55.5 22q34 0 56 -21.5t22 -55.5t-22 -56t-56 -22zM252 465q12 -393 371 -393q113 0 199.5 36.5t121.5 71.5l29 -96q-49 -41 -146 -75 t-219 -34q-226 0 -346.5 134t-120.5 387q0 232 119 370t318 138q135 0 229.5 -64.5t138 -168t43.5 -236.5v-70h-737zM582 907q-138 0 -226 -88t-102 -268h627q-4 174 -85.5 265t-213.5 91z" />
<glyph unicode="&#xec;" horiz-adv-x="436" d="M31 1460l-123 -10l217 -324h100zM221 88v895h-108v-883q0 -66 27.5 -90t97.5 -24q74 0 124 8l5 86q-99 0 -146 8z" />
<glyph unicode="&#xed;" horiz-adv-x="436" d="M301 1460l-195 -334h101l217 324zM221 88v895h-108v-883q0 -66 27.5 -90t97.5 -24q74 0 124 8l5 86q-99 0 -146 8z" />
<glyph unicode="&#xee;" horiz-adv-x="436" d="M360 1151l-194 248l-195 -248l-100 4l246 315h98l246 -315zM221 983v-895q47 -8 146 -8l-5 -86q-50 -8 -124 -8q-70 0 -97.5 24t-27.5 90v883h108z" />
<glyph unicode="&#xef;" horiz-adv-x="436" d="M18 1225q34 0 55 22t21 56t-21 55.5t-55 21.5t-55.5 -21.5t-21.5 -55.5t21.5 -56t55.5 -22zM315 1225q34 0 56 22t22 56t-22 55.5t-56 21.5q-33 0 -55 -22t-22 -55t22 -55.5t55 -22.5zM221 88v895h-108v-883q0 -66 27.5 -90t97.5 -24q74 0 124 8l5 86q-99 0 -146 8z" />
<glyph unicode="&#xf0;" d="M834 1272q258 -255 258 -789q0 -249 -130 -378.5t-346 -129.5q-213 0 -344 130t-131 362q0 237 131 366.5t344 129.5q192 0 330 -138q-60 260 -217 402l-375 -166l-16 86l317 137q-155 102 -376 102l14 89q284 0 471 -142l256 113l14 -86zM616 72q169 0 267 102.5 t98 292.5q0 191 -98 295t-267 104q-168 0 -266 -104t-98 -295q0 -190 97.5 -292.5t266.5 -102.5z" />
<glyph unicode="&#xf1;" horiz-adv-x="1253" d="M463 1325q-91 0 -103 -135l-73 10q7 102 52 155.5t122 53.5q64 0 162.5 -46t152.5 -46q46 0 70 30.5t31 106.5l73 -10q-15 -211 -172 -211q-52 0 -109.5 23t-110.5 46t-95 23zM1036 88q47 -8 146 -8l-4 -86q-41 -8 -121 -8q-76 0 -102.5 22.5t-26.5 87.5v492 q0 317 -287 317q-143 0 -240.5 -97t-97.5 -222v-586h-108v881q-39 20 -123 20l2 84q42 12 78 12q151 0 151 -159v-39q53 93 146 149t219 56q187 0 277.5 -106t90.5 -300v-510z" />
<glyph unicode="&#xf2;" d="M483 1460l-123 -10l218 -324h100zM141 487q0 -239 131.5 -375.5t343.5 -136.5q214 0 345 136t131 376q0 243 -131 380t-345 137q-213 0 -344 -136t-131 -381zM252 487q0 199 98 309.5t266 110.5t266.5 -110.5t98.5 -309.5q0 -198 -98.5 -306.5t-266.5 -108.5t-266 108.5 t-98 306.5z" />
<glyph unicode="&#xf3;" d="M752 1460l-195 -334h100l217 324zM141 487q0 -239 131.5 -375.5t343.5 -136.5q214 0 345 136t131 376q0 243 -131 380t-345 137q-213 0 -344 -136t-131 -381zM252 487q0 199 98 309.5t266 110.5t266.5 -110.5t98.5 -309.5q0 -198 -98.5 -306.5t-266.5 -108.5t-266 108.5 t-98 306.5z" />
<glyph unicode="&#xf4;" d="M616 1399l-194 -248l-100 4l245 315h99l245 -315l-100 -4zM616 1004q214 0 345 -137t131 -380q0 -240 -131 -376t-345 -136q-212 0 -343.5 136.5t-131.5 375.5q0 245 131 381t344 136zM616 72q168 0 266.5 108.5t98.5 306.5q0 199 -98.5 309.5t-266.5 110.5t-266 -110.5 t-98 -309.5q0 -198 98 -306.5t266 -108.5z" />
<glyph unicode="&#xf5;" d="M932 1444q-15 -211 -172 -211q-52 0 -109.5 23t-111 46t-95.5 23q-90 0 -102 -135l-74 10q7 102 52 155.5t122 53.5q64 0 163 -46t153 -46q46 0 69.5 30.5t30.5 106.5zM141 487q0 -239 131.5 -375.5t343.5 -136.5q214 0 345 136t131 376q0 243 -131 380t-345 137 q-213 0 -344 -136t-131 -381zM252 487q0 199 98 309.5t266 110.5t266.5 -110.5t98.5 -309.5q0 -198 -98.5 -306.5t-266.5 -108.5t-266 108.5t-98 306.5z" />
<glyph unicode="&#xf6;" d="M469 1225q34 0 55 22t21 56t-21 55.5t-55 21.5t-56 -21.5t-22 -55.5t22 -56t56 -22zM766 1225q34 0 56 22t22 56t-22 55.5t-56 21.5q-33 0 -55.5 -22t-22.5 -55t22.5 -55.5t55.5 -22.5zM141 487q0 -239 131.5 -375.5t343.5 -136.5q214 0 345 136t131 376q0 243 -131 380 t-345 137q-213 0 -344 -136t-131 -381zM252 487q0 199 98 309.5t266 110.5t266.5 -110.5t98.5 -309.5q0 -198 -98.5 -306.5t-266.5 -108.5t-266 108.5t-98 306.5z" />
<glyph unicode="&#xf7;" horiz-adv-x="1210" d="M606 881q39 0 66.5 27.5t27.5 66.5q0 38 -28 66t-66 28q-39 0 -66.5 -27.5t-27.5 -66.5q0 -40 27 -67t67 -27zM1028 696h-846v-94h846v94zM606 231q38 0 66 27.5t28 67.5q0 38 -28 66t-66 28q-39 0 -66.5 -27.5t-27.5 -66.5q0 -40 27 -67.5t67 -27.5z" />
<glyph unicode="&#xf8;" d="M924 901q168 -142 168 -414q0 -240 -131 -376t-345 -136q-131 0 -237 56l-70 -113l-90 12l90 148q-168 139 -168 409q0 245 131 381t344 136q135 0 238 -56l70 111l90 -12zM252 487q0 -211 113 -321l436 696q-77 45 -185 45q-168 0 -266 -110.5t-98 -309.5zM616 72 q168 0 266.5 108.5t98.5 306.5q0 213 -113 326l-436 -698q79 -43 184 -43z" />
<glyph unicode="&#xf9;" d="M666 1126h-101l-217 324l123 10zM1016 90q55 -10 145 -10l-4 -86q-46 -8 -106 -8q-74 0 -109 33.5t-35 119.5v60q-59 -108 -160 -166t-235 -58q-166 0 -241.5 88.5t-75.5 301.5v516q-41 20 -123 20l2 84q40 10 88 10q75 0 108 -32t33 -107v-475q0 -167 55 -237t187 -70 q85 0 156 33t115 86t67.5 115.5t23.5 125.5v549h109v-893z" />
<glyph unicode="&#xfa;" d="M864 1450l-217 -324h-100l194 334zM1016 90q55 -10 145 -10l-4 -86q-46 -8 -106 -8q-74 0 -109 33.5t-35 119.5v60q-59 -108 -160 -166t-235 -58q-166 0 -241.5 88.5t-75.5 301.5v516q-41 20 -123 20l2 84q40 10 88 10q75 0 108 -32t33 -107v-475q0 -167 55 -237t187 -70 q85 0 156 33t115 86t67.5 115.5t23.5 125.5v549h109v-893z" />
<glyph unicode="&#xfb;" d="M606 1399l-194 -248l-101 4l246 315h98l246 -315l-100 -4zM1016 90q55 -10 145 -10l-4 -86q-46 -8 -106 -8q-74 0 -109 33.5t-35 119.5v60q-59 -108 -160 -166t-235 -58q-166 0 -241.5 88.5t-75.5 301.5v516q-41 20 -123 20l2 84q40 10 88 10q75 0 108 -32t33 -107v-475 q0 -167 55 -237t187 -70q85 0 156 33t115 86t67.5 115.5t23.5 125.5v549h109v-893z" />
<glyph unicode="&#xfc;" d="M457 1225q-34 0 -56 22t-22 56t22 55.5t56 21.5t54.5 -21.5t20.5 -55.5t-21 -56t-54 -22zM754 1225q-33 0 -55.5 22.5t-22.5 55.5t22.5 55t55.5 22q34 0 55.5 -21.5t21.5 -55.5t-21.5 -56t-55.5 -22zM1016 90q55 -10 145 -10l-4 -86q-46 -8 -106 -8q-74 0 -109 33.5 t-35 119.5v60q-59 -108 -160 -166t-235 -58q-166 0 -241.5 88.5t-75.5 301.5v516q-41 20 -123 20l2 84q40 10 88 10q75 0 108 -32t33 -107v-475q0 -167 55 -237t187 -70q85 0 156 33t115 86t67.5 115.5t23.5 125.5v549h109v-893z" />
<glyph unicode="&#xfd;" horiz-adv-x="1034" d="M788 1450l-217 -324h-100l195 334zM899 993l117 -12l-492 -1182q-43 -99 -108.5 -143.5t-173.5 -44.5q-66 0 -129 22l-9 99q84 -25 134 -25q75 0 119 25.5t71 91.5l70 172l-387 889q-41 14 -101 14l4 84q25 10 74 10q50 0 80 -21t53 -73l330 -770z" />
<glyph unicode="&#xfe;" horiz-adv-x="1179" d="M600 1004q203 0 320.5 -132.5t117.5 -371.5q0 -250 -128 -387.5t-371 -137.5q-147 0 -269 56v-400h-108v1823h108v-620q99 170 330 170zM537 72q184 0 286.5 105t102.5 319q0 201 -86.5 306t-251.5 105q-140 0 -229 -86.5t-89 -206.5v-479q113 -63 267 -63z" />
<glyph unicode="&#xff;" horiz-adv-x="1034" d="M381 1225q-34 0 -56 22t-22 56t22 55.5t56 21.5t55 -21.5t21 -55.5t-21 -56t-55 -22zM678 1225q-33 0 -55.5 22.5t-22.5 55.5t22.5 55t55.5 22q34 0 56 -21.5t22 -55.5t-22 -56t-56 -22zM899 993l117 -12l-492 -1182q-43 -99 -108.5 -143.5t-173.5 -44.5q-66 0 -129 22 l-9 99q84 -25 134 -25q75 0 119 25.5t71 91.5l70 172l-387 889q-41 14 -101 14l4 84q25 10 74 10q50 0 80 -21t53 -73l330 -770z" />
<glyph unicode="&#x152;" horiz-adv-x="2369" d="M1520 682v-582h778v-100h-893v319q-85 -162 -237 -253t-353 -91q-207 0 -363.5 98t-237.5 267.5t-81 384.5t81 384.5t237.5 267.5t363.5 98q201 0 353 -91.5t237 -253.5v324h893l-10 -100h-768v-574h716v-98h-716zM815 78q262 0 413.5 178t151.5 469q0 292 -151.5 469.5 t-413.5 177.5q-260 0 -412.5 -177.5t-152.5 -469.5q0 -291 151.5 -469t413.5 -178z" />
<glyph unicode="&#x153;" horiz-adv-x="1970" d="M1092 465q12 -393 372 -393q112 0 198.5 36.5t121.5 71.5l28 -96q-49 -41 -145 -75t-217 -34q-309 0 -418 240q-58 -116 -166 -178t-250 -62q-212 0 -343.5 136.5t-131.5 375.5q0 245 131 381t344 136q141 0 249.5 -62.5t168.5 -179.5q53 115 152 178.5t233 63.5 q101 0 180 -37t129 -101t75.5 -148.5t25.5 -182.5v-70h-737zM1421 907q-138 0 -226 -88t-101 -268h628q-6 176 -87 266t-214 90zM616 72q166 0 264 106.5t101 300.5v17v8q-4 191 -102 297t-263 106q-168 0 -266 -110.5t-98 -309.5q0 -198 98 -306.5t266 -108.5z" />
<glyph unicode="&#x178;" horiz-adv-x="1245" d="M496 1546q-31 0 -51.5 20t-20.5 52t20.5 52t51.5 20t51 -20t20 -52t-20 -52t-51 -20zM797 1546q-30 0 -51 20t-21 52t21 52t51 20q31 0 51 -20t20 -52t-20 -52t-51 -20zM1126 1468l111 -22l-532 -846v-600h-115v600l-447 758h-155v86q53 16 123 16q60 0 88 -16t57 -68 l391 -678z" />
<glyph unicode="&#x2c6;" horiz-adv-x="1036" d="M813 1155l-100 -4l-195 248l-194 -248l-101 4l246 315h98z" />
<glyph unicode="&#x2dc;" horiz-adv-x="1110" d="M887 1444q-15 -211 -172 -211q-52 0 -109.5 23t-111 46t-95.5 23q-90 0 -102 -135l-74 10q7 102 52 155.5t122 53.5q64 0 163 -46t153 -46q46 0 69.5 30.5t30.5 106.5z" />
<glyph unicode="&#x2000;" horiz-adv-x="897" />
<glyph unicode="&#x2001;" horiz-adv-x="1794" />
<glyph unicode="&#x2002;" horiz-adv-x="897" />
<glyph unicode="&#x2003;" horiz-adv-x="1794" />
<glyph unicode="&#x2004;" horiz-adv-x="598" />
<glyph unicode="&#x2005;" horiz-adv-x="448" />
<glyph unicode="&#x2006;" horiz-adv-x="299" />
<glyph unicode="&#x2007;" horiz-adv-x="299" />
<glyph unicode="&#x2008;" horiz-adv-x="224" />
<glyph unicode="&#x2009;" horiz-adv-x="358" />
<glyph unicode="&#x200a;" horiz-adv-x="99" />
<glyph unicode="&#x2010;" horiz-adv-x="819" d="M688 635h-555v-94h555v94z" />
<glyph unicode="&#x2011;" horiz-adv-x="819" d="M688 635h-555v-94h555v94z" />
<glyph unicode="&#x2012;" horiz-adv-x="819" d="M688 635h-555v-94h555v94z" />
<glyph unicode="&#x2013;" horiz-adv-x="1200" d="M1069 635h-936v-94h936v94z" />
<glyph unicode="&#x2014;" horiz-adv-x="1794" d="M1663 635h-1530v-94h1530v94z" />
<glyph unicode="&#x2018;" horiz-adv-x="456" d="M150 1237q0 -70 29.5 -110t76.5 -40q44 0 67 28.5t23 72.5q-42 0 -67 21t-25 59q0 32 7.5 56.5t22 41t25 25t27.5 18.5l-41 66q-145 -91 -145 -238z" />
<glyph unicode="&#x2019;" horiz-adv-x="456" d="M346 1298q0 69 -29.5 108.5t-76.5 39.5q-44 0 -67 -28t-23 -70q42 0 67 -22t25 -60q0 -41 -15 -72.5t-29.5 -43.5t-37.5 -26l41 -65q145 93 145 239z" />
<glyph unicode="&#x201a;" horiz-adv-x="417" d="M307 14q0 69 -29.5 108.5t-76.5 39.5q-44 0 -66 -27.5t-22 -71.5q41 0 66.5 -22t25.5 -59q0 -38 -14.5 -68.5t-25.5 -40.5t-36 -28q-4 -4 -6 -5l41 -63q143 92 143 237z" />
<glyph unicode="&#x201c;" horiz-adv-x="759" d="M152 1237q0 -69 28.5 -108t75.5 -39q44 0 67 27.5t23 70.5q-42 0 -67 22t-25 60q0 31 7 54.5t23 41.5t24 24.5t28 20.5l-41 64q-143 -92 -143 -238zM453 1237q0 -71 28.5 -110.5t75.5 -39.5q44 0 67 28.5t23 72.5q-41 0 -66.5 21.5t-25.5 58.5q0 32 7.5 56.5t23 41.5 t24.5 24.5t27 18.5l-41 66q-143 -92 -143 -238z" />
<glyph unicode="&#x201d;" horiz-adv-x="759" d="M346 1298q0 69 -29.5 108.5t-76.5 39.5q-44 0 -67 -28t-23 -70q42 0 67 -22t25 -60q0 -41 -15 -72.5t-29.5 -43.5t-37.5 -26l41 -65q145 93 145 239zM647 1298q0 69 -28.5 108.5t-75.5 39.5q-44 0 -67 -27.5t-23 -70.5q42 0 67 -22t25 -60q0 -31 -7 -55t-22.5 -41.5 t-24.5 -25t-28 -20.5l41 -63q143 92 143 237z" />
<glyph unicode="&#x201e;" horiz-adv-x="720" d="M307 14q0 69 -29.5 108.5t-76.5 39.5q-44 0 -66 -27.5t-22 -71.5q41 0 66.5 -22t25.5 -59q0 -38 -14.5 -68.5t-25.5 -40.5t-36 -28q-4 -4 -6 -5l41 -63q143 92 143 237zM608 14q0 69 -28.5 108.5t-75.5 39.5q-44 0 -67 -27.5t-23 -71.5q42 0 67 -21.5t25 -59.5 q0 -31 -7 -55t-22.5 -41.5t-24.5 -25t-28 -20.5l41 -63q143 92 143 237z" />
<glyph unicode="&#x2022;" horiz-adv-x="667" d="M334 446q75 0 123.5 48.5t48.5 123.5t-48.5 124t-123.5 49t-123.5 -49t-48.5 -124t48.5 -123.5t123.5 -48.5z" />
<glyph unicode="&#x2026;" horiz-adv-x="1323" d="M662 -25q42 0 71 29.5t29 71.5q0 44 -28.5 73t-71.5 29t-72 -29t-29 -73q0 -42 29.5 -71.5t71.5 -29.5zM1110 -25q42 0 71 29.5t29 71.5q0 44 -28.5 73t-71.5 29t-71.5 -29t-28.5 -73q0 -42 29 -71.5t71 -29.5zM213 -25q42 0 71 29.5t29 71.5q0 44 -28.5 73t-71.5 29 t-71.5 -29t-28.5 -73q0 -42 29 -71.5t71 -29.5z" />
<glyph unicode="&#x202f;" horiz-adv-x="358" />
<glyph unicode="&#x2039;" horiz-adv-x="632" d="M479 870l-297 -288l297 -263l-61 -63l-342 313v21l344 344z" />
<glyph unicode="&#x203a;" horiz-adv-x="632" d="M213 934l344 -344v-21l-342 -313l-61 63l297 263l-297 288z" />
<glyph unicode="&#x205f;" horiz-adv-x="448" />
<glyph unicode="&#x20ac;" horiz-adv-x="1433" d="M1098 870l-13 -86h-995l12 86h179q16 158 68 277t132 189t177 104.5t212 34.5q241 0 402 -125l-25 -105q-175 129 -375 129q-196 0 -321.5 -124t-153.5 -380h701zM1278 205l25 -105q-57 -43 -169 -84t-260 -41q-113 0 -209 32.5t-175 98.5t-132 176t-73 257h-219l12 86 h991l-12 -86h-654q35 -236 161 -349.5t319 -113.5q132 0 235.5 40.5t159.5 88.5z" />
<glyph unicode="&#x2122;" horiz-adv-x="1337" d="M1163 930q18 -6 62 -6v-52q-32 -8 -70 -8q-30 0 -43.5 13t-15.5 43l-15 438l-186 -418h-49l-191 420l-14 -488h-68l15 504h-219v-504h-70v504h-186v58h577l180 -410l179 410h100z" />
<glyph unicode="&#x25fc;" horiz-adv-x="993" d="M0 993h993v-993h-993v993z" />
</font>
</defs>
</svg>
